<?xml version="1.0" encoding="UTF-8" standalone="no"?>
<!-- Created with Inkscape (http://www.inkscape.org/) -->

<svg
   width="928.75427mm"
   height="918.6864mm"
   viewBox="0 0 928.75427 918.68641"
   version="1.1"
   id="svg5"
   inkscape:version="1.2.2 (732a01da63, 2022-12-09)"
   sodipodi:docname="swerl.svg"
   xml:space="preserve"
   xmlns:inkscape="http://www.inkscape.org/namespaces/inkscape"
   xmlns:sodipodi="http://sodipodi.sourceforge.net/DTD/sodipodi-0.dtd"
   xmlns:xlink="http://www.w3.org/1999/xlink"
   xmlns="http://www.w3.org/2000/svg"
   xmlns:svg="http://www.w3.org/2000/svg"><sodipodi:namedview
     id="namedview7"
     pagecolor="#ffffff"
     bordercolor="#000000"
     borderopacity="0.25"
     inkscape:showpageshadow="2"
     inkscape:pageopacity="0.0"
     inkscape:pagecheckerboard="0"
     inkscape:deskcolor="#d1d1d1"
     inkscape:document-units="mm"
     showgrid="false"
     showguides="true"
     inkscape:zoom="0.084004809"
     inkscape:cx="10118.468"
     inkscape:cy="8600.6981"
     inkscape:window-width="1920"
     inkscape:window-height="1094"
     inkscape:window-x="-11"
     inkscape:window-y="-11"
     inkscape:window-maximized="1"
     inkscape:current-layer="text605" /><defs
     id="defs2"><linearGradient
       inkscape:collect="always"
       id="linearGradient978"><stop
         style="stop-color:#a90533;stop-opacity:1;"
         offset="0.3612245"
         id="stop974" /><stop
         style="stop-color:#ff3827;stop-opacity:1;"
         offset="1"
         id="stop976" /></linearGradient><linearGradient
       inkscape:collect="always"
       id="linearGradient3639"><stop
         style="stop-color:#ff3727;stop-opacity:1;"
         offset="0"
         id="stop3635" /><stop
         style="stop-color:#fbac3f;stop-opacity:1;"
         offset="1"
         id="stop3637" /></linearGradient><linearGradient
       inkscape:collect="always"
       xlink:href="#linearGradient3639"
       id="linearGradient3641"
       x1="28.12771"
       y1="-58.351856"
       x2="157.37445"
       y2="-58.351856"
       gradientUnits="userSpaceOnUse"
       gradientTransform="translate(17.918496,14.526213)" /><linearGradient
       inkscape:collect="always"
       xlink:href="#linearGradient3639"
       id="linearGradient11404"
       gradientUnits="userSpaceOnUse"
       gradientTransform="matrix(0.33425835,0,0,0.33425835,278.56008,67.36265)"
       x1="28.12771"
       y1="-58.351856"
       x2="157.37445"
       y2="-58.351856" /><linearGradient
       inkscape:collect="always"
       xlink:href="#linearGradient978"
       id="linearGradient980"
       x1="94.577286"
       y1="-43.869987"
       x2="225.46658"
       y2="-43.869987"
       gradientUnits="userSpaceOnUse" /></defs><g
     inkscape:label="Layer 1"
     inkscape:groupmode="layer"
     id="layer1"
     transform="translate(-669.5085,215.19915)"><g
       aria-label="e"
       id="text605"
       style="font-weight:bold;font-size:176.389px;line-height:1.2;font-family:'Modern No. 20';-inkscape-font-specification:'Modern No. 20 Bold';text-align:center;text-anchor:middle;opacity:0.93;fill:#2d1a0b;fill-opacity:0.870588;stroke-width:26.4583;stroke-linecap:square"
       transform="matrix(4.2821259,0,0,3.4971289,528.56905,361.35028)"><g
         id="g11079"><path
           id="path3582"
           style="opacity:0.93;fill:url(#linearGradient3641);fill-opacity:1;stroke:none;stroke-width:6.83718;stroke-linecap:square;stroke-opacity:1"
           d="m 123.5428,-148.52329 c 0,0 -76.974872,9.55269 -77.494971,108.582004 C 45.527737,59.087544 175.74845,104.40252 175.29229,5.9112849 174.96744,-64.22761 93.116466,-21.473004 92.076275,-89.615165 91.274397,-142.14574 123.5428,-148.52329 123.5428,-148.52329 Z m -0.9979,111.379551 c 0,0 17.28493,8.443343 25.28378,23.866627 7.99886,15.4232536 6.25204,26.343487 6.25204,26.343487 0,0 4.96483,5.403767 7.35528,11.145296 2.39047,5.741514 1.56292,10.920216 1.56292,10.920216 0,0 -2.11463,-5.516355 -7.26333,-5.628933 -5.14868,-0.112579 -6.58806,0.538527 -9.83766,4.165437 -3.2496,3.62691 -6.43564,11.708159 -24.45628,11.145266 -18.02064,-0.562894 -34.570398,-18.800691 -34.570398,-18.800691 0,0 17.009268,6.64211 28.134468,3.827638 11.12494,-2.814464 13.6073,-9.006331 13.6073,-9.006331 0,0 -3.12601,-2.251501 -13.33154,-9.231398 -10.20577,-6.9798823 -28.042397,-26.906332 -28.042397,-26.906332 0,0 11.676415,7.9931178 17.376897,11.4830476 5.70051,3.4899308 15.72242,7.542806 15.72242,7.542806 0,0 -7.99911,-7.542771 -12.22852,-11.370434 -4.22942,-3.8276746 -13.147799,-14.5227966 -13.147799,-14.5227966 0,0 20.503349,14.410147 24.548819,17.337181 4.04541,2.9270414 16.73328,7.9930552 16.73328,7.9930552 0,0 0.76408,-7.3615438 -0.55162,-15.5358672 -1.39214,-8.64925 -13.14766,-24.767274 -13.14766,-24.767274 z"
           sodipodi:nodetypes="csssccscscszzcscccscscscsc" /><path
           id="path3582-9"
           style="font-weight:bold;font-size:176.389px;line-height:1.2;font-family:'Modern No. 20';-inkscape-font-specification:'Modern No. 20 Bold';text-align:center;text-anchor:middle;opacity:0.93;fill:url(#linearGradient11404);fill-opacity:1;stroke:none;stroke-width:2.28539;stroke-linecap:square;stroke-opacity:1"
           d="m 313.86588,12.862001 c 0,0 -25.7295,3.193065 -25.90334,36.294434 -0.17385,33.101208 43.35351,48.248133 43.20104,15.326602 -0.10863,-23.444508 -27.46796,-9.15343 -27.81565,-31.93051 -0.26804,-17.558777 10.51795,-19.690526 10.51795,-19.690526 z m -0.33356,37.229538 c 0,0 5.77764,2.822257 8.45132,7.977613 2.67369,5.155352 2.08979,8.805541 2.08979,8.805541 0,0 1.65954,1.806244 2.45857,3.725401 0.79904,1.919156 0.52241,3.650177 0.52241,3.650177 0,0 -0.70683,-1.843886 -2.42782,-1.881515 -1.72099,-0.03758 -2.20211,0.180006 -3.28832,1.392322 -1.08621,1.212327 -2.15116,3.913559 -8.17471,3.725401 -6.02355,-0.188147 -11.55545,-6.28428 -11.55545,-6.28428 0,0 5.68549,2.220179 9.40418,1.27941 3.7186,-0.940758 4.54836,-3.010431 4.54836,-3.010431 0,0 -1.0449,-0.752588 -4.45618,-3.085679 -3.41136,-2.333079 -9.37341,-8.993664 -9.37341,-8.993664 0,0 3.90294,2.671767 5.80837,3.838301 1.90544,1.166545 5.25535,2.521249 5.25535,2.521249 0,0 -2.67377,-2.521238 -4.08748,-3.800659 -1.41372,-1.279434 -4.39477,-4.854364 -4.39477,-4.854364 0,0 6.85342,4.816711 8.20565,5.795098 1.35222,0.978387 5.59324,2.671743 5.59324,2.671743 0,0 0.25541,-2.460658 -0.18438,-5.192993 -0.46533,-2.891087 -4.39472,-8.278671 -4.39472,-8.278671 z"
           sodipodi:nodetypes="csssccscscszzcscccscscscsc" /><path
           id="path3582-8"
           style="font-weight:bold;font-size:176.389px;line-height:1.2;font-family:'Modern No. 20';-inkscape-font-specification:'Modern No. 20 Bold';text-align:center;text-anchor:middle;opacity:0.93;fill:url(#linearGradient980);fill-opacity:1;stroke:none;stroke-width:6.83718;stroke-linecap:square;stroke-opacity:1"
           d="m 139.46031,-148.53746 c -24.11933,0.12417 -45.234741,17.428 -44.878582,55.899557 0.649301,70.135783 83.731512,26.177214 85.086892,94.3109068 1.04487,52.5238492 -31.19284,59.1251772 -31.19284,59.1251772 0,0 76.9288,-10.086483 76.99079,-109.117333 0.0378,-60.347378 -48.38028,-100.412008 -86.00626,-100.218308 z m 32.29561,24.72339 c 0,0 12.21323,2.84211 13.07773,26.43092 0.86451,23.589092 -12.6877,29.293209 -12.6877,29.293209 0,0 1.30021,-1.910554 3.3806,-5.094751 2.08037,-3.184207 2.47042,-6.050072 2.47042,-6.050072 l -10.53193,-6.209219 c 0,0 -3.12062,14.328995 -17.94333,14.169785 -14.82273,-0.159209 -14.30256,-26.429312 -14.30256,-26.429312 l 41.86766,-0.159295 c 0,0 1.24641,-6.238975 -0.12997,-12.418515 -1.37638,-6.17954 -5.20092,-13.53275 -5.20092,-13.53275 z m -53.04993,0.31829 c 0,0 -7.67163,10.50798 -7.28154,26.269875 0.39007,15.762183 8.32179,28.817523 8.32179,28.817523 0,0 -13.33791,-8.181754 -13.78061,-26.148998 -0.44272,-17.96714 12.21142,-29.79259 12.74036,-28.9384 z m 27.17506,0.79618 c 8.12891,0 8.97167,11.46311 8.97167,11.46311 l -18.8535,-0.31844 c 0,0 1.75294,-11.14467 9.88183,-11.14467 z"
           sodipodi:nodetypes="ssscssczcsccscczccsczcsccs" /><path
           id="path3582-7"
           style="font-weight:bold;font-size:176.389px;line-height:1.2;font-family:'Modern No. 20';-inkscape-font-specification:'Modern No. 20 Bold';text-align:center;text-anchor:middle;opacity:0.93;fill:#000000;fill-opacity:1;stroke:none;stroke-width:6.83718;stroke-linecap:square;stroke-opacity:1"
           d="m 133.22314,148.5789 c 0,0 -76.974856,9.55269 -77.494956,108.58199 -0.52009,99.02883 129.700606,144.34382 129.244446,45.85257 -0.32485,-70.1389 -82.17584,-27.38429 -83.21603,-95.52645 -0.80187,-52.53056 31.46654,-58.90811 31.46654,-58.90811 z m -0.9979,111.37953 c 0,0 17.28493,8.44335 25.28378,23.86663 7.99887,15.42326 6.25204,26.34349 6.25204,26.34349 0,0 4.96483,5.40376 7.35528,11.14529 2.39047,5.74152 1.56292,10.92022 1.56292,10.92022 0,0 -2.11463,-5.51636 -7.26333,-5.62893 -5.14868,-0.11258 -6.58806,0.53852 -9.83766,4.16543 -3.2496,3.62691 -6.43564,11.70816 -24.45628,11.14527 -18.02064,-0.56289 -34.570386,-18.80069 -34.570386,-18.80069 0,0 17.009256,6.64211 28.134456,3.82764 11.12494,-2.81447 13.6073,-9.00633 13.6073,-9.00633 0,0 -3.12601,-2.25151 -13.33154,-9.2314 -10.20577,-6.97988 -28.042386,-26.90633 -28.042386,-26.90633 0,0 11.676396,7.99311 17.376886,11.48304 5.70051,3.48994 15.72242,7.54281 15.72242,7.54281 0,0 -7.99911,-7.54277 -12.22852,-11.37043 -4.22942,-3.82768 -13.14781,-14.5228 -13.14781,-14.5228 0,0 20.50336,14.41015 24.54883,17.33718 4.04541,2.92704 16.73328,7.99306 16.73328,7.99306 0,0 0.76408,-7.36155 -0.55162,-15.53587 -1.39214,-8.64925 -13.14766,-24.76728 -13.14766,-24.76728 z"
           sodipodi:nodetypes="csssccscscszzcscccscscscsc" /><path
           id="path3582-8-24"
           style="font-weight:bold;font-size:176.389px;line-height:1.2;font-family:'Modern No. 20';-inkscape-font-specification:'Modern No. 20 Bold';text-align:center;text-anchor:middle;opacity:0.93;fill:#000000;fill-opacity:1;stroke:none;stroke-width:6.83718;stroke-linecap:square;stroke-opacity:1"
           d="m 149.38781,148.11803 c -24.11933,0.12417 -45.23474,17.428 -44.87858,55.89956 0.6493,70.13578 83.73151,26.17721 85.08689,94.31091 1.04487,52.52385 -31.19283,59.12517 -31.19283,59.12517 0,0 76.9288,-10.08648 76.99078,-109.11733 0.0378,-60.34738 -48.38027,-100.41201 -86.00626,-100.21831 z m 32.29561,24.72339 c 0,0 12.21324,2.84211 13.07773,26.43092 0.86451,23.58909 -12.6877,29.29321 -12.6877,29.29321 0,0 1.30021,-1.91055 3.3806,-5.09475 2.08037,-3.18421 2.47042,-6.05007 2.47042,-6.05007 l -10.53193,-6.20922 c 0,0 -3.12062,14.32899 -17.94333,14.16978 -14.82273,-0.1592 -14.30256,-26.42931 -14.30256,-26.42931 l 41.86766,-0.15929 c 0,0 1.24641,-6.23898 -0.12997,-12.41852 -1.37638,-6.17954 -5.20092,-13.53275 -5.20092,-13.53275 z m -53.04993,0.31829 c 0,0 -7.67163,10.50798 -7.28154,26.26988 0.39007,15.76218 8.32179,28.81752 8.32179,28.81752 0,0 -13.33791,-8.18175 -13.78061,-26.149 -0.44272,-17.96714 12.21143,-29.79259 12.74036,-28.9384 z m 27.17506,0.79618 c 8.12891,0 8.97167,11.46311 8.97167,11.46311 l -18.8535,-0.31844 c 0,0 1.75294,-11.14467 9.88183,-11.14467 z"
           sodipodi:nodetypes="ssscssczcsccscczccsczcsccs" /><path
           id="path3582-8-2"
           style="font-weight:bold;font-size:176.389px;line-height:1.2;font-family:'Modern No. 20';-inkscape-font-specification:'Modern No. 20 Bold';text-align:center;text-anchor:middle;opacity:0.93;fill:#a90533;fill-opacity:1;stroke:none;stroke-width:2.36044;stroke-linecap:square;stroke-opacity:1"
           d="m 393.43812,-20.158986 c -8.32686,0.04287 -15.12288,5.796909 -14.99992,19.0786685 0.22417,24.2133835 28.41334,9.257172 28.88127,32.7793625 0.36072,18.133113 -10.76888,20.412127 -10.76888,20.412127 0,0 26.55857,-3.482215 26.57997,-37.671209 0.013,-20.8340755 -16.70261,-34.665822 -29.69244,-34.598949 z m 11.1496,8.5354 c 0,0 4.21645,0.981198 4.5149,9.1249005 0.29846,8.143799 -4.38025,10.113064 -4.38025,10.113064 0,0 0.44889,-0.659592 1.16711,-1.75889 0.71822,-1.099303 0.85287,-2.088702 0.85287,-2.088702 l -3.636,-2.143644 c 0,0 -1.07735,4.946881 -6.19467,4.891916 -5.11734,-0.05497 -4.93776,-9.124344 -4.93776,-9.124344 l 14.45421,-0.05499 c 0,0 0.43031,-2.153917 -0.0449,-4.287316 -0.47517,-2.133399 -1.79554,-4.6719905 -1.79554,-4.6719905 z m -18.31473,0.109886 c 0,0 -2.64852,3.6277305 -2.51385,9.0693015 0.13466,5.441669 2.87298,9.94884 2.87298,9.94884 0,0 -4.60473,-2.824635 -4.75756,-9.02757 -0.15284,-6.2029 4.21582,-10.2854695 4.39843,-9.9905715 z m 9.38179,0.274869 c 2.8064,0 3.09735,3.9574765 3.09735,3.9574765 l -6.5089,-0.109936 c 0,0 0.60517,-3.8475405 3.41155,-3.8475405 z"
           sodipodi:nodetypes="ssscssczcsccscczccsczcsccs" /><path
           id="path3582-7-3"
           style="font-weight:bold;font-size:176.389px;line-height:1.2;font-family:'Modern No. 20';-inkscape-font-specification:'Modern No. 20 Bold';text-align:center;text-anchor:middle;opacity:0.93;fill:#ffffff;fill-opacity:1;stroke:none;stroke-width:6.83718;stroke-linecap:square;stroke-opacity:1"
           d="m 131.94743,401.20135 c 0,0 -76.974881,9.55269 -77.494981,108.58199 -0.52009,99.02883 129.700631,144.34382 129.244471,45.85257 -0.32485,-70.1389 -82.17584,-27.38429 -83.21603,-95.52645 -0.801875,-52.53056 31.46654,-58.90811 31.46654,-58.90811 z m -0.9979,111.37953 c 0,0 17.28493,8.44335 25.28378,23.86663 7.99887,15.42326 6.25204,26.34349 6.25204,26.34349 0,0 4.96483,5.40376 7.35528,11.14529 2.39047,5.74152 1.56292,10.92022 1.56292,10.92022 0,0 -2.11463,-5.51636 -7.26333,-5.62893 -5.14868,-0.11258 -6.58806,0.53852 -9.83766,4.16543 -3.2496,3.62691 -6.43564,11.70816 -24.45628,11.14527 -18.02064,-0.56289 -34.570411,-18.80069 -34.570411,-18.80069 0,0 17.009281,6.64211 28.134481,3.82764 11.12494,-2.81447 13.6073,-9.00633 13.6073,-9.00633 0,0 -3.12601,-2.25151 -13.33154,-9.2314 -10.20577,-6.97988 -28.042411,-26.90633 -28.042411,-26.90633 0,0 11.676421,7.99311 17.376911,11.48304 5.70051,3.48994 15.72242,7.54281 15.72242,7.54281 0,0 -7.99911,-7.54277 -12.22852,-11.37043 -4.22942,-3.82768 -13.14781,-14.5228 -13.14781,-14.5228 0,0 20.50336,14.41015 24.54883,17.33718 4.04541,2.92704 16.73328,7.99306 16.73328,7.99306 0,0 0.76408,-7.36155 -0.55162,-15.53587 -1.39214,-8.64925 -13.14766,-24.76728 -13.14766,-24.76728 z"
           sodipodi:nodetypes="csssccscscszzcscccscscscsc" /><path
           id="path3582-8-24-4"
           style="font-weight:bold;font-size:176.389px;line-height:1.2;font-family:'Modern No. 20';-inkscape-font-specification:'Modern No. 20 Bold';text-align:center;text-anchor:middle;opacity:0.93;fill:#ffffff;fill-opacity:1;stroke:none;stroke-width:6.83718;stroke-linecap:square;stroke-opacity:1"
           d="m 148.15076,400.83716 c -24.11933,0.12417 -45.23474,17.428 -44.87858,55.89956 0.6493,70.13578 83.73151,26.17721 85.08689,94.31091 1.04487,52.52385 -31.19283,59.12517 -31.19283,59.12517 0,0 76.9288,-10.08648 76.99078,-109.11733 0.0378,-60.34738 -48.38027,-100.41201 -86.00626,-100.21831 z m 32.29561,24.72339 c 0,0 12.21324,2.84211 13.07773,26.43092 0.86451,23.58909 -12.6877,29.29321 -12.6877,29.29321 0,0 1.30021,-1.91055 3.3806,-5.09475 2.08037,-3.18421 2.47042,-6.05007 2.47042,-6.05007 l -10.53193,-6.20922 c 0,0 -3.12062,14.32899 -17.94333,14.16978 -14.82273,-0.1592 -14.30256,-26.42931 -14.30256,-26.42931 l 41.86766,-0.15929 c 0,0 1.24641,-6.23898 -0.12997,-12.41852 -1.37638,-6.17954 -5.20092,-13.53275 -5.20092,-13.53275 z m -53.04993,0.31829 c 0,0 -7.67163,10.50798 -7.28154,26.26988 0.39007,15.76218 8.32179,28.81752 8.32179,28.81752 0,0 -13.33791,-8.18175 -13.78061,-26.149 -0.44272,-17.96714 12.21143,-29.79259 12.74036,-28.9384 z m 27.17506,0.79618 c 8.12891,0 8.97167,11.46311 8.97167,11.46311 l -18.8535,-0.31844 c 0,0 1.75294,-11.14467 9.88183,-11.14467 z"
           sodipodi:nodetypes="ssscssczcsccscczccsczcsccs" /></g></g></g></svg>
